<?xml version="1.0" encoding="UTF-8"?>
<svg width="48px" height="45px" viewBox="0 0 48 45" version="1.1" xmlns="http://www.w3.org/2000/svg" xmlns:xlink="http://www.w3.org/1999/xlink">
    <!-- Generator: sketchtool 52.2 (67145) - http://www.bohemiancoding.com/sketch -->
    <title>9F4B7838-65B1-44F6-B0FF-7013F68E3A40</title>
    <desc>Created with sketchtool.</desc>
    <g id="Page-1" stroke="none" stroke-width="1" fill="none" fill-rule="evenodd">
        <g id="Project@2x" transform="translate(-958.000000, -78.000000)" fill-rule="nonzero">
            <g id="Group-18" transform="translate(0.000000, 58.000000)">
                <g id="Group-20">
                    <g id="Group-8" transform="translate(901.000000, 20.000000)">
                        <g id="Group-60" transform="translate(57.000000, 0.000000)">
                            <g id="Group-59">
                                <g id="Group-58">
                                    <g id="Group-31">
                                        <ellipse id="Oval" fill="#494A5A" cx="25.6606635" cy="17.4750521" rx="13.8537035" ry="13.9366641"></ellipse>
                                        <path d="M35.3903318,13.2955894 C36.383155,14.6477685 36.902478,16.2457983 36.902478,17.9052909 C36.902478,19.9181938 36.077671,21.7774401 34.6724441,23.2832759 L35.5277996,26.4947013 L38.1244144,26.4947013 L40.858497,23.3754699 L41.5916588,18.8118655 L41.7444008,16.0921416 L39.0408666,13.0190073 L35.3903318,13.2955894 Z" id="Shape" fill="#2C2D39"></path>
                                        <path d="M5.30014895,26.8634774 L5.77364929,28.753455 C5.77364929,28.753455 11.3640081,40.2930743 23.9499526,44.5800967 C23.9499526,44.5800967 35.4004062,39.6630818 40.4867163,31.3195221 L33.465782,25.1578878 C33.465782,25.1578878 30.105457,27.8468804 25.1107921,27.8468804 C20.1161273,27.8468804 13.3343805,24.8505744 13.3343805,18.6735745 C13.3343805,12.4965745 20.3605146,10.2378208 20.3605146,10.2378208 L17.3667705,9.50026854 L9.71439404,9.50026854 L4.85719702,21.2703729 L5.30014895,26.8634774 Z" id="Shape" fill="#2C2D39"></path>
                                        <path d="M47.5944211,13.8915888 C47.3805823,13.6764694 42.9828848,8 25.7480469,1 C25.1655528,0.771675315 24.6018279,0.754504091 24.056872,0.948486328 C8.266272,4.99919041 0.519322952,13.359375 0.519322952,13.8915888 C0.519322952,14.4238027 2.77990521,22.4227983 4.24622884,25.6803207 C4.36842248,25.9569028 6.32352065,29.4295445 7.77457007,31.3195221 C6.91921462,29.4295445 5.98748815,27.7854177 5.98748815,24.9581341 C5.98748815,16.9833506 12.1277183,10.4990372 19.8106432,10.2224551 C19.9939336,10.2224551 20.1924983,10.2224551 20.3757888,10.2378208 L18.5428842,8.39394019 C18.5428842,8.39394019 25.920325,7.14932079 35.3903318,12.9114476 C35.3903318,12.9114476 35.5277996,13.2033954 35.3903318,14.063873 C35.3903318,14.063873 39.8503995,15.9999476 40.2322546,19.7645371 C40.6141097,23.5291267 38.246608,25.6803207 36.3373324,25.9876341 C36.3373324,25.9876341 37.3301557,24.4357013 35.8027353,23.605955 C35.481977,23.421567 35.1001219,23.3447386 34.7182668,23.3601043 C31.8008937,23.3601043 31.4648612,26.7098207 31.4648612,26.7098207 C31.4343128,26.8788431 31.4343128,27.0478654 31.4343128,27.2168878 C31.4343128,27.2168878 30.9455383,32.1185371 39.6212864,32.026343 C39.6212864,32.026343 44.0202573,27.0171341 45.1810968,22.5149923 C45.6087745,20.8554998 45.9142586,19.6108804 46.1128233,18.6889401 C46.6015978,17.382858 47.0750982,15.4588873 47.5333243,14.0606112 L47.5944211,13.8915888 Z" id="Shape" fill="#FFFFFF"></path>
                                        <path d="M31.6176032,14.4019178 C31.7397969,14.3404551 32.1369262,14.1407013 32.5951523,13.6643655 C33.5116046,13.7872909 34.4127827,14.0792387 34.4127827,14.0792387 C32.7478944,13.0651043 30.4720379,12.4658431 27.9517942,12.4812088 C27.9517942,12.4812088 28.9140691,13.8641193 31.5870548,14.4326491 C31.5870548,14.4326491 31.602329,14.4172834 31.6176032,14.4019178 Z" id="Shape" fill="#FFFFFF" opacity="0.895424107"></path>
                                        <path d="M47.7624374,13.1346456 C38.5673663,5.14342915 26.9436967,0.991130411 24.5303724,0.192008767 L24.3012593,0.113663507 L23.9957752,0.0196491963 L23.4611781,0.192008767 C21.0478538,0.991130411 9.42418416,5.14342915 0.229113067,13.1346456 L0.0305484089,13.3070052 L0.0763710223,13.573379 C0.0916452268,13.6360553 1.08446852,19.6999783 4.47534191,26.547354 C6.47626269,30.5743003 8.90486121,34.0684989 11.6847664,36.9672734 C15.090914,40.5084792 19.0622072,43.1252108 23.4764523,44.7547922 L23.7361137,44.8488065 L23.9957752,44.9428208 L24.2707109,44.8331375 L24.5303724,44.7391232 C28.9446175,43.1095418 32.9006364,40.4928101 36.3220582,36.9516044 C39.1019634,34.0684989 41.5305619,30.5586312 43.5314827,26.5316849 C46.9223561,19.6999783 47.9304536,13.6203862 47.9304536,13.55771 L47.9762762,13.2913361 L47.7624374,13.1346456 Z M42.6914015,26.1086205 C40.7363033,30.0415525 38.3688016,33.4730749 35.6499932,36.2935042 C32.274394,39.7877028 28.3641977,42.3574273 23.9957752,43.9400015 C19.6273527,42.3574273 15.7171564,39.8033718 12.3415572,36.3091733 C9.62274882,33.4887439 7.25524712,30.0728906 5.30014895,26.1399586 C2.35222749,20.217057 1.25248477,14.9052484 1.0233717,13.6830624 C10.4475559,5.5821626 22.3614353,1.53954723 23.9957752,1.00679946 C25.6148409,1.53954723 37.5439946,5.5821626 46.9681787,13.6830624 C46.7390657,14.8895794 45.6240487,20.201388 42.6914015,26.1086205 Z" id="Shape" fill="#FFFFFF"></path>
                                    </g>
                                </g>
                            </g>
                        </g>
                    </g>
                </g>
            </g>
        </g>
    </g>
</svg>