<?xml version="1.0" encoding="UTF-8"?>
<svg width="45px" height="38px" viewBox="0 0 45 38" version="1.1" xmlns="http://www.w3.org/2000/svg" xmlns:xlink="http://www.w3.org/1999/xlink">
    <!-- Generator: sketchtool 52.2 (67145) - http://www.bohemiancoding.com/sketch -->
    <title>F00DE4BD-CC14-467C-A58D-D55623FDE8DF</title>
    <desc>Created with sketchtool.</desc>
    <g id="Page-1" stroke="none" stroke-width="1" fill="none" fill-rule="evenodd">
        <g id="Project@2x" transform="translate(-610.000000, -79.000000)" fill="#FFFFFF" fill-rule="nonzero">
            <g id="Group-18" transform="translate(0.000000, 58.000000)">
                <g id="Group-20">
                    <g id="Group-2" transform="translate(553.000000, 22.000000)">
                        <g id="diamond-5" transform="translate(58.000000, 0.000000)">
                            <g id="diamond-4">
                                <g id="diamond-3">
                                    <g id="diamond-2">
                                        <g id="diamond">
                                            <path d="M2.69128911,9.7145561 L8.05692277,2.79825366 C10.1696277,0.031697561 10.1026158,0.031697561 12.0812119,0.031697561 L30.8610574,0.031697561 C32.8396535,0.031697561 32.7725564,0.031697561 34.8853465,2.79825366 L40.2509802,9.7145561 C43.8727723,13.8643902 43.8057604,13.8643902 40.2509802,18.0141366 L25.4953386,33.2300195 C24.1874574,34.6132976 23.5167426,35.9965756 21.4710495,35.9965756 C19.4253564,35.9965756 18.7546416,34.6132976 17.4467604,33.2300195 L2.69128911,18.0141366 C-0.863491089,13.8643024 -0.930588119,13.8643024 2.69128911,9.7145561 Z" id="Path"></path>
                                            <g id="Group" stroke="#2D2E38" stroke-width="2">
                                                <path d="M32.202402,16.6308585 L10.7397822,16.6308585 L19.9620475,35.6507122 C20.3980079,35.8581951 20.8675168,35.9964878 21.4711347,35.9964878 C22.0747525,35.9964878 22.5442614,35.8927024 22.9466733,35.6852195 L32.202402,16.6308585 Z M42.9002059,13.8643024 L42.9002059,13.4839317 C42.699,12.5502146 41.8270792,11.5473951 40.250895,9.7145561 L34.8852614,2.79825366 C32.7725564,0.031697561 32.8395683,0.031697561 30.8609723,0.031697561 L21.4375861,0.031697561 L32.1689386,16.6308585 C32.3030475,16.492478 42.9002059,13.8643024 42.9002059,13.8643024 Z M8.05692277,2.79816585 L2.69128911,9.71446829 C0.880350495,11.7893854 0.00842970297,12.8268 0.00842970297,13.8643024 C0.109075248,13.8988976 10.6055881,16.492478 10.7397822,16.6308585 L21.4711347,0.031697561 L12.0812119,0.031697561 C10.1026158,0.031697561 10.1697129,0.031697561 8.05692277,2.79816585 Z" id="Shape"></path>
                                            </g>
                                            <path d="M33.4432713,0.965414634 C32.6384475,0.031697561 32.2360356,0.031697561 30.8610574,0.031697561 L21.4711347,0.031697561 L32.2024871,16.6308585 C32.202402,17.6308585 33.4432713,0.965414634 33.4432713,0.965414634 Z M9.49899802,0.999921951 L11.3999023,15.7568584 L21.4711347,0.031697561 L12.0812119,0.031697561 C10.7062337,0.031697561 10.3373703,0.031697561 9.49899802,0.999921951 Z" id="Shape" stroke="#2D2E38" stroke-width="2"></path>
                                        </g>
                                    </g>
                                </g>
                            </g>
                        </g>
                    </g>
                </g>
            </g>
        </g>
    </g>
</svg>